<?xml version="1.0" encoding="utf-8"?>
<!-- Generator: Adobe Illustrator 26.0.3, SVG Export Plug-In . SVG Version: 6.00 Build 0)  -->
<svg version="1.0" id="Layer_1" xmlns="http://www.w3.org/2000/svg" xmlns:xlink="http://www.w3.org/1999/xlink" x="0px" y="0px"
	 viewBox="0 0 571.4 57.6" style="enable-background:new 0 0 571.4 57.6;" xml:space="preserve">
<style type="text/css">
	.st0{fill:#86BB46;}
	.st1{fill:none;stroke:#3A3637;stroke-width:0.75;stroke-miterlimit:10;}
	.st2{fill:none;stroke:#86BB46;stroke-width:0.75;stroke-miterlimit:10;}
	.st3{fill:#3A3637;}
</style>
<circle class="st0" cx="28.1" cy="28.8" r="26.6"/>
<circle class="st1" cx="54.7" cy="28.8" r="4.9"/>
<circle class="st0" cx="199.5" cy="28.8" r="26.6"/>
<circle class="st1" cx="226.1" cy="28.8" r="4.9"/>
<circle class="st1" cx="172.9" cy="28.8" r="4.9"/>
<line class="st2" x1="59.6" y1="28.8" x2="168" y2="28.8"/>
<circle class="st0" cx="542.4" cy="28.8" r="26.6"/>
<circle class="st1" cx="515.8" cy="28.8" r="4.9"/>
<line class="st2" x1="510.9" y1="28.8" x2="402.5" y2="28.8"/>
<circle class="st0" cx="371" cy="28.8" r="26.6"/>
<circle class="st1" cx="397.6" cy="28.8" r="4.9"/>
<circle class="st1" cx="344.4" cy="28.8" r="4.9"/>
<line class="st2" x1="231.1" y1="28.8" x2="339.4" y2="28.8"/>
<g>
	<path class="st3" d="M48.2,29c-0.5,0.5-1,1.1-1.5,1.6c-0.1,0.1-0.2,0.3-0.2,0.5c-0.6,4.3-2.4,7.9-5.5,11c-0.1,0.1-0.1,0.1-0.2,0.2
		c-0.3,0.2-0.6,0.2-0.8,0c-0.2-0.2-0.2-0.6,0-0.8c0.3-0.3,0.6-0.6,0.8-0.9c2.1-2.3,3.5-5,4.2-8.2c-0.2,0.2-0.5,0.5-0.7,0.7
		c-0.2,0.2-0.4,0.4-0.6,0.6c-0.3,0.3-0.7,0.3-0.9,0c-0.3-0.4-0.6-0.8-0.9-1.1c-0.1-0.1-0.2-0.2-0.3-0.3c-0.3,0.8-0.5,1.6-0.9,2.3
		c-2.5,5.1-6.6,7.7-12.3,8c-0.8,0-0.9-0.1-0.9-0.9c0-0.1,0-0.1,0-0.2c-1,0.8-2,1.6-3.1,2.5c1,1,2,1.9,3,2.9c0.2-0.7,0.3-0.8,0.9-0.8
		c3.6,0,6.8-1.1,9.8-3.2c0.3-0.2,0.5-0.3,0.8-0.1c0.1,0.1,0.2,0.4,0.2,0.6c0,0.1-0.2,0.3-0.3,0.4c-2.1,1.5-4.5,2.5-7,3
		c-1,0.2-2,0.3-3,0.4c0,0.3,0,0.6,0,0.9c0,0.3-0.1,0.5-0.4,0.6c-0.3,0.1-0.5,0-0.7-0.2c-0.4-0.4-0.8-0.8-1.2-1.2
		c-0.2-0.2-0.5-0.3-0.8-0.4c-7.5-0.9-13.8-6.7-15.5-14.1c-0.3-1.2-0.4-2.4-0.6-3.7c-0.2,0-0.5,0-0.8,0c-0.3,0-0.5-0.1-0.6-0.4
		c-0.1-0.3,0-0.5,0.2-0.7c0.4-0.4,0.9-0.9,1.3-1.3c0.1-0.2,0.3-0.4,0.3-0.6c0.6-4.4,2.5-8,5.7-11.1c0.3-0.3,0.7-0.3,0.9-0.1
		c0.2,0.3,0.2,0.6-0.1,0.9c-2.4,2.3-4.1,5.1-4.9,8.4c0,0.2-0.1,0.3-0.1,0.5c0,0,0,0,0,0c0.4-0.4,0.8-0.7,1.2-1.1
		c0.4-0.4,0.7-0.4,1.1,0c0.4,0.5,0.7,0.9,1.1,1.3c0.5-1.1,0.8-2.2,1.4-3.2c2.6-4.6,6.6-6.9,11.8-7.2c0.7,0,0.8,0.2,0.9,0.8
		c0,0.1,0,0.2,0,0.3c1.1-0.9,2.1-1.7,3.1-2.5c-1-1-2-1.9-3-2.9c-0.2,0.7-0.3,0.8-0.9,0.8c-3.5,0.1-6.7,1.1-9.5,3
		c-0.4,0.3-0.7,0.3-0.9,0c-0.2-0.3-0.2-0.7,0.2-0.9c1.7-1.2,3.6-2.1,5.6-2.6c1.3-0.4,2.7-0.6,4-0.6c0.1,0,0.2,0,0.3,0
		c0.2-0.5-0.2-1.2,0.5-1.6c0.1,0,0.3,0,0.4,0c0.5,0.5,1,0.9,1.5,1.4c0.2,0.2,0.5,0.3,0.8,0.4c3.4,0.4,6.5,1.8,9.2,4
		c3.9,3.2,6.2,7.3,6.7,12.4c0.1,0.5,0.1,0.9,0.1,1.4c0.3,0,0.6,0,0.8,0c0.4,0,0.6,0.1,0.8,0.4C48.2,28.8,48.2,28.9,48.2,29z
		 M40.7,28.2c0-0.1,0-0.1,0-0.2c-0.1-1.3-0.3-2.5-0.8-3.7c-1.7-4.2-4.8-6.9-9.2-7.9c-0.2-0.1-0.4,0-0.6,0.2c-0.5,0.4-1,0.8-1.5,1.2
		c-0.2,0.1-0.5,0.2-0.7,0.1c-0.3-0.1-0.4-0.3-0.3-0.6c0-0.4,0-0.7,0-1.2c-0.7,0.1-1.3,0.2-1.9,0.3c-4.9,0.9-9,5-10,9.9
		c0,0.2,0,0.4,0.1,0.5c0.4,0.5,0.8,1,1.2,1.6c0.1,0.2,0.1,0.4,0.1,0.6c-0.1,0.3-0.3,0.4-0.6,0.4c-0.4,0-0.7,0-1.2,0
		c0.1,0.6,0.1,1.2,0.2,1.8c0.9,5,4.9,9.1,9.9,10.1c0.2,0,0.4,0,0.6-0.2c0.5-0.4,1-0.8,1.5-1.2c0.2-0.1,0.5-0.2,0.6-0.1
		c0.2,0.1,0.3,0.3,0.3,0.5c0.1,0.4,0,0.8,0,1.2c0.1,0,0.2,0,0.3,0c1.2-0.1,2.4-0.3,3.5-0.8c4.2-1.7,6.9-4.8,7.9-9.2
		c0.1-0.3,0-0.5-0.2-0.7c-0.4-0.5-0.8-1-1.2-1.5C39,29,39,28.8,39,28.6c0.1-0.3,0.3-0.4,0.6-0.4C40,28.2,40.3,28.2,40.7,28.2z
		 M40.8,29.4c0.8,1,1.6,2,2.5,3c1-1,1.9-2,2.9-3c-0.6-0.1-0.7-0.3-0.8-0.9c-0.1-1.1-0.1-2.3-0.4-3.3c-1.6-6.9-5.9-11.3-12.7-13.2
		c-0.2-0.1-0.4-0.1-0.5-0.1c0.3,0.4,0.7,0.8,1.1,1.2c0.5,0.5,0.5,0.8-0.1,1.2c-0.4,0.3-0.9,0.7-1.3,1.1c0.2,0.1,0.4,0.1,0.5,0.1
		c5.6,1.6,9.7,6.9,9.9,12.6C42,29.3,42,29.3,40.8,29.4z M24.7,42.2c-0.2-0.1-0.3-0.1-0.5-0.1c-5.7-1.6-9.8-6.9-9.9-12.8
		c0-1,0.1-1.1,1-1.1c0,0,0,0,0.1-0.1c-0.8-1-1.6-2-2.4-3c-1,1-1.9,2-2.9,3c0.7,0.2,0.8,0.3,0.8,0.9c0.1,0.8,0.1,1.7,0.2,2.5
		C12.3,38,15.9,42.5,22,45c0.8,0.3,1.6,0.5,2.5,0.8c0-0.1,0-0.2,0-0.2c-0.4-0.4-0.8-0.7-1.1-1.1c-0.5-0.5-0.5-0.8,0-1.2
		C23.7,42.9,24.2,42.6,24.7,42.2z"/>
	<path class="st3" d="M32.1,35.3c-0.7,0.3-1.3,0.5-2,0.8c-0.1,0-0.2,0.2-0.2,0.3c-0.1,0.3-0.1,0.6-0.2,0.9c-0.1,0.6-0.5,0.9-1.1,0.9
		c-0.4,0-0.8,0-1.1,0c-0.6,0-1.1-0.4-1.1-0.9c0-0.8-0.4-1.3-1.2-1.4c-0.3-0.1-0.6-0.2-0.8-0.4c-0.2-0.1-0.3-0.1-0.5,0
		c-0.2,0.2-0.4,0.3-0.7,0.5c-0.5,0.3-1,0.3-1.4-0.1c-0.3-0.3-0.5-0.5-0.8-0.8c-0.4-0.4-0.5-1-0.1-1.4c0.6-0.7,0.7-1.3,0.2-2
		c-0.1-0.2-0.2-0.4-0.2-0.5c0-0.5-0.4-0.6-0.8-0.6c-0.4-0.1-0.8-0.1-1-0.4c-0.6-0.4-0.6-2.3,0-2.7c0.3-0.2,0.6-0.3,1-0.4
		c0.5-0.1,0.8-0.2,0.9-0.7c0.1-0.4,0.4-0.9,0.6-1.3c0-0.1,0-0.3,0-0.4c-0.1-0.2-0.3-0.4-0.5-0.7c-0.4-0.5-0.3-1,0.1-1.5
		c0.2-0.3,0.5-0.5,0.8-0.8c0.4-0.4,0.9-0.4,1.4-0.1c0.3,0.2,0.6,0.6,1,0.6c0.3,0,0.7-0.3,1-0.5c0.2-0.1,0.4-0.2,0.6-0.2
		c0.5-0.1,0.6-0.3,0.6-0.7c0-0.2,0.1-0.5,0.1-0.7c0.2-0.4,0.5-0.7,1-0.7c0.4,0,0.8,0,1.2,0c0.5,0,0.9,0.3,1,0.9
		c0.1,0.3,0.1,0.6,0.1,0.9c0,0.2,0.1,0.3,0.3,0.4c0.5,0.2,1.1,0.4,1.6,0.7c0.2,0.1,0.3,0.1,0.5,0c0.2-0.2,0.4-0.3,0.7-0.5
		c0.5-0.3,1-0.3,1.5,0.1c0.3,0.2,0.5,0.5,0.8,0.8c0.4,0.4,0.5,1,0.1,1.4c-0.6,0.6-0.7,1.2-0.2,1.9c0.1,0.2,0.2,0.4,0.2,0.5
		c0.1,0.5,0.4,0.6,0.8,0.7c0.3,0,0.7,0.1,1,0.3c0.6,0.4,0.6,2.3,0,2.8c-0.3,0.2-0.7,0.3-1.1,0.3c-0.4,0.1-0.7,0.2-0.8,0.6
		c-0.1,0.5-0.4,0.9-0.6,1.3c-0.1,0.2-0.1,0.3,0,0.5c0.2,0.2,0.3,0.4,0.5,0.7c0.3,0.5,0.3,1-0.1,1.4c-0.3,0.3-0.5,0.5-0.8,0.8
		c-0.4,0.4-1,0.4-1.4,0.1C32.6,35.7,32.4,35.5,32.1,35.3z M19.9,29.3c0.5,0.1,0.9,0.1,1.3,0.2c0.4,0,0.6,0.2,0.6,0.6
		c0.2,0.8,0.5,1.6,0.9,2.2c0.2,0.3,0.2,0.6,0,0.9c-0.3,0.3-0.5,0.7-0.7,1c0.2,0.3,0.5,0.5,0.7,0.7c0.4-0.3,0.7-0.5,1.1-0.8
		c0.3-0.2,0.6-0.2,0.9,0c0.7,0.5,1.4,0.8,2.3,0.9c0.3,0.1,0.5,0.2,0.6,0.6c0.1,0.4,0.1,0.9,0.2,1.3c0.4,0,0.7,0,1,0
		c0.1-0.4,0.1-0.9,0.2-1.3c0-0.4,0.2-0.6,0.6-0.6c0.8-0.2,1.6-0.5,2.3-0.9c0.3-0.2,0.6-0.2,0.9,0c0.4,0.3,0.7,0.5,1.1,0.8
		c0.3-0.2,0.5-0.5,0.7-0.7c-0.3-0.4-0.5-0.7-0.8-1.1c-0.2-0.3-0.2-0.6,0-0.9c0.3-0.5,0.6-1.1,0.8-1.7c0.3-1.2,0.2-1.1,1.4-1.2
		c0.7-0.1,0.7-0.1,0.7-0.8c0-0.2-0.1-0.3-0.3-0.3c-0.3,0-0.6-0.1-1-0.1c-0.4,0-0.6-0.2-0.7-0.6c-0.2-0.8-0.5-1.5-0.9-2.2
		c-0.2-0.3-0.2-0.6,0-0.9c0.3-0.4,0.5-0.7,0.7-1c-0.2-0.3-0.5-0.5-0.7-0.8c-0.3,0.3-0.7,0.5-1,0.8c-0.3,0.2-0.6,0.2-0.9,0
		c-0.7-0.3-1.4-0.6-2.2-0.9c-0.4-0.1-0.6-0.3-0.6-0.7c0-0.4-0.1-0.8-0.2-1.2c-0.3,0-0.7,0-1,0c-0.1,0.5-0.2,0.9-0.2,1.3
		c0,0.4-0.3,0.5-0.6,0.6c-0.7,0.3-1.5,0.6-2.2,0.9c-0.4,0.2-0.6,0.2-1-0.1c-0.3-0.3-0.7-0.5-1-0.7c-0.3,0.2-0.5,0.5-0.7,0.7
		c0.3,0.4,0.5,0.7,0.8,1.1c0.2,0.3,0.2,0.6,0,0.9c-0.5,0.7-0.8,1.4-0.9,2.2c-0.1,0.4-0.3,0.5-0.6,0.6c-0.4,0.1-0.9,0.1-1.3,0.2
		C19.9,28.6,19.9,28.9,19.9,29.3z"/>
	<path class="st3" d="M23.9,28.8c0-2.2,1.7-4,4-4.1c2.1-0.1,4,1.5,4.3,3.7c0.3,2-1.3,4.1-3.4,4.5c-0.9,0.2-1.8,0-2.7-0.4
		c-0.4-0.2-0.6-0.5-0.4-0.9c0.2-0.3,0.5-0.4,0.9-0.2c1.9,1,4.1-0.2,4.3-2.3c0.2-1.6-1-3-2.6-3.2c-1.6-0.2-3.1,1-3.2,2.5
		c0,0.4,0,0.9,0.1,1.3c0.1,0.4,0,0.8-0.4,0.9c-0.3,0.1-0.6-0.1-0.8-0.5C24.1,29.6,24,29.2,23.9,28.8z"/>
</g>
<g>
	<path class="st3" d="M562.5,28.8c0,11.2-9.1,20.1-20.3,20c-11.1-0.1-19.9-9.1-19.9-20.3c0.1-11,9.1-19.9,20.2-19.9
		C553.5,8.7,562.5,17.8,562.5,28.8z M523.7,28.8c0,10.3,8.4,18.7,18.7,18.7c10.4,0,18.7-8.4,18.7-18.7c0-10.3-8.4-18.7-18.7-18.7
		C532.1,10.1,523.7,18.5,523.7,28.8z"/>
	<path class="st3" d="M538.9,38c0-0.3,0-0.6,0-0.8c0-0.4,0-0.7,0.4-0.9c0.4-0.2,0.7,0,1,0.2c1.7,1.1,3.4,2.3,5.2,3.4
		c0.3,0.2,0.6,0.4,0.9,0.6c0.5,0.4,0.5,1-0.1,1.3c-2.1,1.1-4.2,2.2-6.3,3.3c-0.6,0.3-1.1,0-1.1-0.6c0-0.2,0-0.4,0-0.6
		c-0.9-0.3-1.8-0.5-2.7-0.8c-5.4-2.2-8.6-6.1-9.8-11.8c-0.3-1.6-0.3-3.2-0.2-4.7c0.1-0.6,0.3-0.9,0.7-0.9c0.4,0,0.6,0.3,0.7,0.8
		c1.1,5.5,4.2,9.2,9.5,11.2C537.7,37.7,538.3,37.8,538.9,38z M540.3,38.1c0,0.2,0,0.3,0,0.4c0,0.7-0.3,1-1,0.9
		c-4.9-0.9-8.6-3.5-11.1-7.7c-0.1-0.1-0.1-0.2-0.2-0.3c0,0.1,0,0.2,0,0.3c1.7,5.8,5.5,9.3,11.4,10.6c0.5,0.1,1,0.3,1,0.9
		c1.5-0.8,2.9-1.5,4.3-2.2C543.2,40,541.8,39.1,540.3,38.1z"/>
	<path class="st3" d="M545.9,19.6c0,0.4,0,0.7,0,1c0,0.7-0.6,1-1.2,0.6c-2.1-1.4-4.2-2.8-6.2-4.2c-0.5-0.4-0.5-1,0.1-1.3
		c2.1-1.1,4.1-2.2,6.2-3.2c0.6-0.3,1.1,0,1.1,0.7c0,0.2,0,0.4,0,0.6c0.6,0.2,1.2,0.3,1.7,0.5c6.2,2.1,9.9,6.5,10.9,13
		c0.2,1.3,0.1,2.6,0,3.8c0,0.6-0.3,0.9-0.7,0.9c-0.4,0-0.7-0.2-0.8-0.8c-0.5-3.1-1.9-5.7-4.1-7.9c-1.9-1.9-4.1-3.1-6.7-3.7
		C546.2,19.7,546,19.7,545.9,19.6z M556.9,26.2c0-0.1,0-0.2,0-0.2c-1.3-5.5-5.9-9.8-11.5-10.7c-0.5-0.1-0.9-0.3-1-0.9
		c-1.4,0.8-2.8,1.5-4.3,2.2c1.5,1,2.9,1.9,4.3,2.9c0-0.2,0-0.3,0-0.5c0-0.7,0.3-1,1-0.9c3.8,0.7,7,2.4,9.5,5.4
		C555.7,24.4,556.2,25.3,556.9,26.2z"/>
	<path class="st3" d="M551.6,29.7c3.4,0,6.2,2.8,6.2,6.2c0,3.6-2.7,6.3-6.2,6.3c-3.6,0-6.2-2.7-6.2-6.3
		C545.3,32.5,548.2,29.7,551.6,29.7z M546.7,36c0,2.6,2.2,4.8,4.9,4.8c2.7,0,4.9-2.2,4.8-4.9c0-2.8-2.1-4.8-4.9-4.8
		C548.8,31.1,546.7,33.3,546.7,36z"/>
	<path class="st3" d="M533.2,15.7c3.6,0,6.2,2.7,6.2,6.3c0,3.4-2.8,6.2-6.2,6.2c-3.4,0-6.2-2.8-6.2-6.2
		C527,18.4,529.6,15.7,533.2,15.7z M533.2,26.7c2.7,0,4.8-2.1,4.8-4.8c0-2.6-2.2-4.9-4.9-4.9c-2.7,0-4.8,2.2-4.8,4.9
		C528.4,24.6,530.5,26.7,533.2,26.7z"/>
	<path class="st3" d="M553.6,34.6c0,0.4-0.3,0.7-0.6,0.7c-0.3,0-0.7-0.2-0.8-0.6c0-0.1,0-0.2-0.1-0.3c-0.1-0.3-0.4-0.5-0.7-0.4
		c-0.3,0-0.6,0.3-0.6,0.6c0,0.3,0.1,0.6,0.4,0.7c0.1,0,0.3,0.1,0.4,0.1c0.9,0.1,1.6,0.8,1.8,1.6c0.2,0.9-0.2,1.8-1,2.2
		c-0.3,0.2-0.4,0.3-0.3,0.6c0,0.1,0,0.3,0,0.4c-0.1,0.4-0.3,0.6-0.7,0.6c-0.4,0-0.6-0.3-0.6-0.6c0-0.1,0-0.1,0-0.2
		c0.1-0.4-0.1-0.6-0.4-0.8c-0.6-0.3-0.9-0.9-0.9-1.6c0-0.4,0.2-0.7,0.6-0.8c0.4,0,0.7,0.2,0.8,0.6c0,0.1,0,0.2,0.1,0.3
		c0.1,0.3,0.4,0.5,0.7,0.4c0.3-0.1,0.5-0.3,0.5-0.6c0-0.3-0.2-0.6-0.5-0.6c-0.1,0-0.3,0-0.4-0.1c-0.9-0.1-1.6-0.8-1.7-1.7
		c-0.2-0.8,0.3-1.7,1-2.1c0.2-0.1,0.4-0.3,0.3-0.5c0-0.1,0-0.3,0-0.4c0.1-0.4,0.3-0.6,0.6-0.6c0.4,0,0.6,0.2,0.7,0.5
		c0,0.1,0,0.2,0,0.3c-0.1,0.4,0.1,0.6,0.4,0.8C553.3,33.2,553.6,33.8,553.6,34.6z"/>
	<path class="st3" d="M533.9,21.1c0.6,0,1.1,0,1.7,0c0.4,0,0.7,0.1,0.8,0.5c0.1,0.4-0.2,0.8-0.6,0.8c-0.9,0-1.7,0-2.6,0
		c-0.4,0-0.6-0.3-0.7-0.7c0-1.2,0-2.4,0-3.6c0-0.5,0.3-0.7,0.7-0.8c0.4,0,0.7,0.3,0.7,0.8c0,0.8,0,1.6,0,2.5
		C533.9,20.7,533.9,20.9,533.9,21.1z"/>
</g>
<g>
	<path class="st3" d="M360.1,11.9c0.2,0,0.4,0.1,0.5,0.1c0.4,0.1,0.7,0.4,0.6,0.8c-0.1,0.4-0.4,0.6-0.8,0.5
		c-1.5-0.3-2.8,0.1-3.9,1.2c-1.2,1.3-1.4,3.2-0.6,4.7c0.8,1.6,2.5,2.4,4.3,2.1c1.6-0.3,3-1.6,3.3-3.3c0.1-0.5,0-1,0-1.6
		c0-0.1,0-0.2,0-0.3c0-0.4,0.2-0.7,0.5-0.7c0.3-0.1,0.7,0.1,0.7,0.5c0.1,0.6,0.2,1.3,0.1,2c0,1-0.5,1.9-1,2.7
		c1.4,1.4,2.8,2.8,4.2,4.2c0.7-0.3,1.5-0.6,2.3-1c0-0.4,0-1,0-1.5c0-0.1-0.1-0.1-0.2-0.2c-0.9-0.4-1.4-1.3-1.3-2.2
		c0.1-1,0.7-1.7,1.6-2c1.1-0.3,2.3,0.2,2.7,1.3c0.4,1.1-0.1,2.4-1.1,2.8c-0.2,0.1-0.3,0.2-0.3,0.4c0,0.5,0,0.9,0,1.4
		c1.4,0.2,2.6,0.9,3.4,2.1c0.1,0,0.2-0.1,0.2-0.1c1.6-0.8,3.2-1.6,4.8-2.3c0.2-0.1,0.3-0.2,0.2-0.4c-0.4-2.1,0.9-4.2,3-4.5
		c2.1-0.4,4.1,1,4.5,3.1c0,0.1,0,0.1,0.1,0.2c0,0.3,0,0.6,0,0.9c0,0.1,0,0.1-0.1,0.2c-0.4,2.5-3.1,3.9-5.3,2.8
		c-0.6-0.3-1.1-0.7-1.5-1.2c-0.1,0-0.2,0.1-0.3,0.1c-1.6,0.8-3.2,1.5-4.7,2.3c-0.2,0.1-0.3,0.2-0.2,0.5c0.3,1.1,0.2,2.1-0.3,3.1
		c-0.2,0.3-0.4,0.7-0.5,1c1.7,1.7,3.4,3.5,5.1,5.2c0.2-0.1,0.3-0.2,0.4-0.2c2.7-1.7,6.3-0.4,7.3,2.6c0.1,0.3,0.1,0.6,0.2,0.9
		c0,0.4,0,0.7,0,1.1c-0.1,0.3-0.1,0.6-0.2,0.9c-0.7,2.2-2.8,3.6-5,3.4c-2.3-0.2-4.1-1.9-4.4-4.2c-0.2-1.2,0.1-2.3,0.7-3.3
		c0.1-0.1,0.1-0.2,0.2-0.3c-1.7-1.7-3.4-3.4-5.2-5.2c-1.1,0.8-2.4,1.1-3.8,0.9c-1.1-0.2-1.9-0.7-2.7-1.5c-1.3-1.4-1.9-3.9-0.3-6.2
		c-1.4-1.4-2.8-2.8-4.3-4.3c-0.8,0.6-1.7,0.9-2.7,1.1c-2.8,0.4-5.6-1.8-5.9-4.5c-0.4-3,1.4-5.5,4.4-6.1c0.1,0,0.3-0.1,0.4-0.1
		C359.3,11.9,359.7,11.9,360.1,11.9z M382.9,37.2c-2,0-3.6,1.6-3.6,3.6c0,1.9,1.6,3.5,3.5,3.5c2,0,3.6-1.6,3.6-3.6
		C386.5,38.8,384.9,37.2,382.9,37.2z M367.4,28.8c0,2,1.6,3.6,3.6,3.6c1.9,0,3.5-1.6,3.5-3.5c0-2-1.6-3.6-3.5-3.6
		C369,25.2,367.4,26.8,367.4,28.8z M384,25c1.4,0,2.5-1.1,2.5-2.5c0-1.4-1.1-2.5-2.5-2.5c-1.4,0-2.5,1.1-2.5,2.5
		C381.5,23.8,382.6,24.9,384,25z M371,19.1c-0.5,0-0.9,0.4-0.9,0.9c0,0.5,0.4,0.9,0.9,0.9c0.5,0,0.9-0.4,0.9-0.9
		C371.9,19.6,371.5,19.2,371,19.1z"/>
	<path class="st3" d="M361,39.6c0.4,0.6,0.6,1.3,0.7,2c0.2,2-1.3,3.9-3.4,4.1c-1.9,0.2-3.8-1.2-4.1-3.2c-0.2-1.6,0.3-2.9,1.6-3.8
		c1.3-0.9,2.7-0.9,4.1-0.1c0.2,0.1,0.3,0.1,0.5-0.1c1.2-1.2,2.4-2.4,3.6-3.6c0.1-0.1,0.2-0.2,0.3-0.3c0.3-0.2,0.6-0.1,0.8,0.1
		c0.2,0.2,0.2,0.5,0.1,0.8c-0.1,0.1-0.2,0.2-0.3,0.3c-1.2,1.2-2.3,2.3-3.5,3.5C361.2,39.4,361.1,39.5,361,39.6z M360.4,41.9
		c0-1.4-1.1-2.5-2.4-2.5c-1.4,0-2.5,1.1-2.6,2.5c0,1.4,1.1,2.5,2.5,2.5C359.2,44.3,360.4,43.2,360.4,41.9z"/>
	<path class="st3" d="M366.8,33.6c0,0.4-0.3,0.6-0.7,0.6c-0.4,0-0.6-0.3-0.6-0.7c0-0.4,0.3-0.6,0.7-0.6
		C366.5,33,366.8,33.3,366.8,33.6z"/>
	<path class="st3" d="M362.9,14.6c-0.4,0-0.7-0.3-0.7-0.7c0-0.3,0.3-0.6,0.7-0.6c0.4,0,0.7,0.3,0.6,0.7
		C363.5,14.4,363.2,14.6,362.9,14.6z"/>
</g>
<g>
	<path class="st3" d="M195.2,46.2c0-2.9,0-5.8,0-8.7c0.4,0,0.8,0,1.2,0c0,3.3,0,6.6,0,10c-0.9,0-1.8,0-2.6-0.2
		c-1.3-0.2-2.3-1.5-2.3-2.9c0-2.2,0-4.4,0-6.6c0-0.5,0.2-1,0.2-1.6c-0.2,0-0.3,0-0.5,0c-1.5,0-3.1,0-4.6,0c-2.7,0-4.5,1.9-4.5,4.6
		c0,1,0,2,0.1,3c0.2,1.2,1.3,2.3,2.4,2.4c0-1.1,0-2.2,0-3.4c0-1.1,0-2.2,0-3.4c0.4,0,0.8,0,1.2,0c0,2.3,0,4.5,0,6.8
		c1.9,0,3.7,0,5.6,0c0,0.4,0,0.8,0,1.3c-0.1,0-0.3,0-0.4,0c-1.9,0-3.8,0-5.7,0c-2.6,0-4.5-1.9-4.5-4.5c0-1-0.1-2.1,0.1-3.1
		c0.3-2.7,2.6-4.8,5.3-4.8c2-0.1,4,0,5.9,0c0.1,0,0.3-0.1,0.4-0.2c1.2-1.6,2.8-2.4,4.7-2.4c1.6,0,3.1,0,4.7,0c2,0,3.5,0.8,4.7,2.4
		c0.1,0.1,0.3,0.2,0.4,0.2c2.1,0,4.2-0.1,6.3,0c2.7,0.2,4.8,2.5,4.9,5.2c0.1,1.2,0.1,2.4-0.1,3.6c-0.2,2-2.1,3.6-4.1,3.6
		c-2.1,0-4.1,0-6.2,0c-0.1,0-0.1,0-0.2,0c0-0.4,0-0.8,0-1.2c1.8,0,3.7,0,5.6,0c0-2.3,0-4.6,0-6.9c0.4,0,0.8,0,1.2,0
		c0,2.3,0,4.5,0,6.7c1.1-0.1,2.2-1.2,2.4-2.4c0.1-0.7,0.1-1.4,0.1-2.1c0-0.7,0-1.3-0.1-2c-0.4-1.9-2.1-3.3-4-3.4
		c-1.8-0.1-3.5,0-5.3,0c-0.1,0-0.1,0-0.2,0c0.5,2.8,0.2,5.5,0.2,8.3c0,1.6-1.4,2.9-3,2.9c-0.6,0-1.3,0-2,0c0-3.3,0-6.6,0-10
		c0.4,0,0.8,0,1.2,0c0,2.9,0,5.8,0,8.7c1.5,0.3,2.5-0.6,2.5-2c0-2,0-3.9,0-5.9c0-2.6-1.9-4.5-4.5-4.5c-1.6,0-3.1,0-4.7,0
		c-2.6,0-4.5,1.9-4.5,4.5c0,1.9,0.1,3.8,0,5.7C192.6,45.3,193.4,46.5,195.2,46.2z"/>
	<path class="st3" d="M214.5,30.6c0-0.4,0-0.8,0-1.2c0.5-0.2,0.6-0.3,0.6-0.9c0-1.1,0-2.2,0-3.4c0-0.6-0.2-0.8-0.8-0.8
		c-1,0-1.9,0-2.9,0c-0.3,0-0.4,0-0.5-0.3c-0.3-1.2-0.8-2.3-1.4-3.4c0-0.1-0.1-0.2-0.1-0.3c0.7-0.7,1.5-1.5,2.2-2.2
		c0.5-0.5,0.5-0.7,0-1.2c-0.8-0.8-1.6-1.6-2.3-2.3c-0.4-0.4-0.7-0.4-1.2,0c-0.7,0.7-1.5,1.5-2.2,2.2c-1-0.4-1.9-0.8-2.9-1.3
		c-0.1,0-0.2-0.1-0.3-0.1c-0.9-0.3-0.9-0.3-0.9-1.2c0-0.8,0-1.5,0-2.3c0-0.5-0.2-0.8-0.8-0.8c-1.2,0-2.3,0-3.5,0
		c-0.5,0-0.8,0.2-0.8,0.8c0,1,0,1.9,0,2.9c0,0.2,0,0.4-0.3,0.4c-1.3,0.3-2.5,0.8-3.7,1.6c-0.4-0.4-0.7-0.8-1.1-1.2
		c-0.4-0.4-0.8-0.8-1.2-1.2c-0.3-0.3-0.7-0.3-1,0c-0.9,0.9-1.7,1.7-2.6,2.6c-0.3,0.3-0.3,0.6,0,1c0.7,0.7,1.4,1.4,2,2
		c0.1,0.1,0.2,0.2,0.3,0.3c-0.7,1.2-1.3,2.4-1.6,3.7c0,0.1-0.2,0.2-0.3,0.2c-0.9,0-1.9,0-2.9,0c-0.7,0-0.9,0.2-0.9,0.9
		c0,1.1,0,2.2,0,3.2c0,0.6,0.1,0.7,0.6,0.9c0,0.4,0,0.8,0,1.2c-0.9,0.1-1.8-0.7-1.8-1.7c0-1.3,0-2.7,0-4c0-1,0.9-1.7,1.9-1.8
		c0.7,0,1.4,0,2.1,0c0.1,0,0.3-0.1,0.3-0.2c0.3-0.8,0.6-1.5,0.9-2.4c-0.5-0.5-1-1-1.5-1.5c-0.9-0.9-0.9-2,0-2.9
		c0.8-0.8,1.6-1.6,2.4-2.4c0.9-0.9,2-0.9,3,0c0.5,0.4,0.9,0.9,1.3,1.4c0.2,0.2,0.3,0.2,0.5,0.1c0.7-0.3,1.3-0.6,2-0.8
		c0.2-0.1,0.3-0.2,0.3-0.4c0-0.7,0-1.4,0-2.1c0-1.1,0.8-1.9,1.9-1.9c1.2,0,2.5,0,3.7,0c1.1,0,1.9,0.8,1.9,1.9c0,0.7,0,1.4,0,2.1
		c0,0.2,0,0.3,0.3,0.4c0.7,0.3,1.3,0.6,2,0.8c0.1,0,0.3,0,0.4-0.1c0.5-0.5,1-1,1.4-1.4c0.9-0.8,2-0.9,2.8,0c0.8,0.8,1.7,1.7,2.5,2.5
		c0.8,0.8,0.8,1.9,0,2.8c-0.5,0.5-1.1,1.1-1.6,1.6c0.3,0.8,0.6,1.6,1,2.4c0,0.1,0.2,0.1,0.3,0.1c0.7,0,1.3,0,2,0c1.2,0,2,0.8,2,2
		c0,1.2,0,2.4,0,3.6C216.4,29.8,215.6,30.6,214.5,30.6z"/>
	<path class="st3" d="M208.3,26.9c-0.5,0-0.8,0-1.3,0c-0.1-2.4-1-4.4-2.9-5.9c-1.4-1.1-3.1-1.6-4.9-1.6c-3.9,0.1-7.2,3.2-7.3,7.5
		c-0.4,0-0.8,0-1.2,0c0.1-3.1,1.3-5.5,3.9-7.2c3-1.9,6.1-2.1,9.2-0.3C206.7,20.9,208.1,23.5,208.3,26.9z"/>
	<path class="st3" d="M199.5,31.9c-2.1,0-3.7-1.7-3.7-3.8c0-2.1,1.7-3.7,3.8-3.7c2.1,0,3.7,1.7,3.7,3.8
		C203.3,30.2,201.6,31.9,199.5,31.9z M199.5,30.6c1.4,0,2.5-1.1,2.5-2.5c0-1.4-1.1-2.5-2.5-2.5c-1.4,0-2.5,1.1-2.5,2.5
		C197,29.5,198.1,30.6,199.5,30.6z"/>
	<path class="st3" d="M188.9,34.4c-2.1,0-3.7-1.7-3.7-3.8c0-2.1,1.7-3.7,3.8-3.7c2.1,0,3.7,1.7,3.7,3.8
		C192.6,32.7,191,34.4,188.9,34.4z M188.9,33.1c1.4,0,2.5-1.1,2.5-2.5c0-1.4-1.1-2.5-2.5-2.5c-1.4,0-2.5,1.1-2.5,2.5
		C186.4,32,187.5,33.1,188.9,33.1z"/>
	<path class="st3" d="M210.1,34.4c-2.1,0-3.7-1.7-3.7-3.8c0-2.1,1.7-3.7,3.8-3.7c2.1,0,3.7,1.7,3.7,3.8
		C213.9,32.7,212.2,34.4,210.1,34.4z M210.1,33.1c1.4,0,2.5-1.1,2.5-2.5c0-1.4-1.1-2.5-2.5-2.5c-1.4,0-2.5,1.1-2.5,2.5
		C207.6,32,208.8,33.1,210.1,33.1z"/>
	<path class="st3" d="M202,46.3c0,0.4,0,0.8,0,1.2c-1.7,0-3.3,0-4.9,0c0-0.4,0-0.8,0-1.2C198.7,46.3,200.3,46.3,202,46.3z"/>
</g>
</svg>
